<svg width="36" height="35" viewBox="0 0 36 35" fill="none" xmlns="http://www.w3.org/2000/svg">
<g id="github">
<path id="Vector" d="M13.3511 27.7083C5.93375 29.8958 5.93375 24.0624 2.9668 23.3333M23.7355 32.0833V26.4395C23.7911 25.7441 23.6956 25.0451 23.4551 24.3888C23.2147 23.7325 22.8349 23.1341 22.341 22.6333C26.9991 22.1228 31.8946 20.3874 31.8946 12.4249C31.8942 10.3888 31.0975 8.43084 29.6694 6.95618C30.3456 5.17483 30.2978 3.20586 29.5359 1.45826C29.5359 1.45826 27.7854 0.947846 23.7355 3.6166C20.3354 2.71071 16.7513 2.71071 13.3511 3.6166C9.30124 0.947846 7.55074 1.45826 7.55074 1.45826C6.78879 3.20586 6.74098 5.17483 7.41723 6.95618C5.97844 8.44178 5.18092 10.4175 5.19201 12.4687C5.19201 20.3728 10.0875 22.1083 14.7456 22.677C14.2575 23.1728 13.8811 23.7641 13.6409 24.4123C13.4006 25.0606 13.3019 25.7513 13.3511 26.4395V32.0833" stroke="#8793A8" stroke-width="2" stroke-linecap="round" stroke-linejoin="round"/>
</g>
</svg>
