<svg width="36" height="35" viewBox="0 0 36 35" fill="none" xmlns="http://www.w3.org/2000/svg">
<g id="instagram">
<path id="Vector" d="M25.0918 2.91675H10.5085C6.48139 2.91675 3.2168 6.18134 3.2168 10.2084V24.7917C3.2168 28.8188 6.48139 32.0834 10.5085 32.0834H25.0918C29.1189 32.0834 32.3835 28.8188 32.3835 24.7917V10.2084C32.3835 6.18134 29.1189 2.91675 25.0918 2.91675Z" stroke="#8793A8" stroke-width="2" stroke-linecap="round" stroke-linejoin="round"/>
<path id="Vector_2" d="M23.6348 16.5812C23.8148 17.7949 23.6075 19.0344 23.0424 20.1235C22.4773 21.2126 21.5832 22.0958 20.4872 22.6474C19.3912 23.199 18.1492 23.391 16.9378 23.1961C15.7265 23.0012 14.6074 22.4292 13.7398 21.5616C12.8722 20.6941 12.3003 19.575 12.1053 18.3636C11.9104 17.1522 12.1024 15.9102 12.6541 14.8142C13.2057 13.7183 14.0888 12.8242 15.1779 12.2591C16.267 11.694 17.5066 11.4866 18.7202 11.6666C19.9583 11.8502 21.1044 12.4271 21.9894 13.3121C22.8744 14.197 23.4512 15.3432 23.6348 16.5812Z" stroke="#8793A8" stroke-width="2" stroke-linecap="round" stroke-linejoin="round"/>
<path id="Vector_3" d="M25.8223 9.47925H25.8378" stroke="#8793A8" stroke-width="2" stroke-linecap="round" stroke-linejoin="round"/>
</g>
</svg>
