<svg width="36" height="35" viewBox="0 0 36 35" fill="none" xmlns="http://www.w3.org/2000/svg">
<g id="linkedin">
<path id="Vector" d="M23.6348 11.6667C25.9554 11.6667 28.181 12.5886 29.8219 14.2296C31.4629 15.8705 32.3848 18.0961 32.3848 20.4167V30.6251H26.5514V20.4167C26.5514 19.6432 26.2441 18.9013 25.6972 18.3544C25.1502 17.8074 24.4083 17.5001 23.6348 17.5001C22.8612 17.5001 22.1194 17.8074 21.5724 18.3544C21.0254 18.9013 20.7181 19.6432 20.7181 20.4167V30.6251H14.8848V20.4167C14.8848 18.0961 15.8066 15.8705 17.4476 14.2296C19.0885 12.5886 21.3141 11.6667 23.6348 11.6667V11.6667Z" stroke="#8793A8" stroke-width="2" stroke-linecap="round" stroke-linejoin="round"/>
<path id="Vector_2" d="M9.05013 13.125H3.2168V30.625H9.05013V13.125Z" stroke="#8793A8" stroke-width="2" stroke-linecap="round" stroke-linejoin="round"/>
<path id="Vector_3" d="M6.13346 8.75008C7.74429 8.75008 9.05013 7.44425 9.05013 5.83341C9.05013 4.22258 7.74429 2.91675 6.13346 2.91675C4.52263 2.91675 3.2168 4.22258 3.2168 5.83341C3.2168 7.44425 4.52263 8.75008 6.13346 8.75008Z" stroke="#8793A8" stroke-width="2" stroke-linecap="round" stroke-linejoin="round"/>
</g>
</svg>
