<svg width="95" height="41" viewBox="0 0 95 41" fill="none" xmlns="http://www.w3.org/2000/svg">
<g id="Layer 11">
<path id="Vector" d="M41.0967 33.6965L41.0975 33.6965C48.3817 33.6483 54.2068 27.6294 54.2068 20.3594V7.80322V7.30322H53.7068H46.1477H45.6477V7.80322V19.9808C44.0925 19.8619 42.6242 19.191 41.5136 18.0803C40.2845 16.8513 39.594 15.1843 39.594 13.4462V7.80322C39.594 6.06507 40.2845 4.39811 41.5136 3.16905C42.7426 1.93999 44.4096 1.24951 46.1477 1.24951H53.7093H53.7094C54.5701 1.24936 55.4223 1.41877 56.2175 1.74806C57.0127 2.07736 57.7353 2.56009 58.3438 3.16868C58.9524 3.77727 59.4352 4.4998 59.7645 5.29499C60.0938 6.09018 60.2632 6.94245 60.263 7.80313V7.80322V20.3118C60.263 30.961 51.7018 39.7246 41.0666 39.7503C30.4258 39.7759 21.7598 31.1316 21.7598 20.4999V7.80322C21.7598 6.06507 22.4502 4.39811 23.6793 3.16905C24.79 2.05838 26.2582 1.38754 27.8135 1.2686L27.8135 20.4999L27.8135 20.5007C27.8162 22.2402 28.1623 23.962 28.8319 25.5675C29.5014 27.1729 30.4814 28.6304 31.7154 29.8564C32.9495 31.0823 34.4134 32.0526 36.0232 32.7116C37.6331 33.3706 39.3572 33.7053 41.0967 33.6965Z" fill="url(#paint0_linear_1026_154)" stroke="url(#paint1_linear_1026_154)"/>
<path id="Vector_2" d="M11.0601 18.4592L11.0601 18.4592L11.0543 18.4612L6.82709 19.966L5.49997 20.4385L6.82795 20.9084L11.0527 22.4036L11.0552 22.4044L13.4465 23.265L13.4465 23.2651L13.4502 23.2664C14.5662 23.6581 15.5329 24.3869 16.2168 25.3519C16.8749 26.2804 17.2398 27.3837 17.2663 28.5195L11.3889 26.4376L11.3885 26.4375L6.71271 24.7861L6.71235 24.786L4.85689 24.129C4.85686 24.129 4.85684 24.129 4.85681 24.129C3.58242 23.6775 2.47924 22.8422 1.69903 21.7381C0.986304 20.7294 0.575098 19.5416 0.509348 18.313L6.71179 16.116L6.71278 16.1156L11.3879 14.4707L11.389 14.4704L17.2678 12.3869V16.2996L13.454 17.6403L13.452 17.641L11.0601 18.4592Z" stroke="url(#paint2_linear_1026_154)"/>
<path id="Vector_3" d="M72.8203 7.87843L70.3182 16.7424L70.3179 16.7434L69.0093 21.4176L69.0087 21.4195L66.9352 28.7107C66.5817 29.9533 65.8328 31.0467 64.8019 31.8252C63.9512 32.4677 62.9467 32.8668 61.8956 32.9867L65.1082 21.6911L65.1087 21.6891L66.4176 17.0141L66.4179 17.013L67.7895 12.1561L67.7895 12.156C68.14 10.9136 68.8867 9.81975 69.916 9.04074C70.7657 8.39763 71.7696 7.99817 72.8203 7.87843Z" stroke="url(#paint3_linear_1026_154)"/>
<path id="Vector_4" d="M88.1723 20.0357L83.9474 18.5405L83.9451 18.5397L81.5535 17.6802L81.5535 17.6802L81.5502 17.6791C80.4335 17.2865 79.4664 16.5567 78.7825 15.5907C78.1254 14.6625 77.7609 13.5601 77.734 12.4253L83.6109 14.5126L83.6122 14.5131L88.2852 16.1585L88.2883 16.1596L90.1508 16.8292C90.1509 16.8293 90.151 16.8293 90.1511 16.8293C90.1511 16.8293 90.1511 16.8293 90.1512 16.8293C91.4237 17.288 92.5241 18.1277 93.3023 19.2341C94.0132 20.2448 94.4237 21.4332 94.4905 22.6624L88.2884 24.8557L88.2877 24.856L83.6123 26.501L83.6112 26.5013L77.7324 28.5848V24.6783L81.5503 23.3349L81.5503 23.335L81.5535 23.3338L83.9451 22.4744L83.9474 22.4736L88.1723 20.9784L89.5042 20.507L88.1723 20.0357Z" stroke="url(#paint4_linear_1026_154)"/>
</g>
<defs>
<linearGradient id="paint0_linear_1026_154" x1="50.2197" y1="16.9078" x2="23.1469" y2="23.8645" gradientUnits="userSpaceOnUse">
<stop stop-color="#C5D4FC"/>
<stop offset="0.520833" stop-color="#A1B3E6"/>
<stop offset="1" stop-color="#D098BA"/>
</linearGradient>
<linearGradient id="paint1_linear_1026_154" x1="56.9324" y1="29.7279" x2="22.7598" y2="-3.76127" gradientUnits="userSpaceOnUse">
<stop stop-color="#C5D4FC"/>
<stop offset="1" stop-color="#C5D4FC" stop-opacity="0.33"/>
</linearGradient>
<linearGradient id="paint2_linear_1026_154" x1="8.88391" y1="11.6792" x2="8.88391" y2="29.2276" gradientUnits="userSpaceOnUse">
<stop stop-color="#93AFD7"/>
<stop offset="0.473958" stop-color="#C5D4FB"/>
<stop offset="1" stop-color="#C5D4FB" stop-opacity="0.13"/>
</linearGradient>
<linearGradient id="paint3_linear_1026_154" x1="67.3572" y1="7.34033" x2="67.3572" y2="33.5249" gradientUnits="userSpaceOnUse">
<stop stop-color="#93AFD7"/>
<stop offset="0.473958" stop-color="#C5D4FB"/>
<stop offset="1" stop-color="#C5D4FB" stop-opacity="0.13"/>
</linearGradient>
<linearGradient id="paint4_linear_1026_154" x1="86.1163" y1="11.7166" x2="86.1163" y2="29.2925" gradientUnits="userSpaceOnUse">
<stop stop-color="#93AFD7"/>
<stop offset="0.473958" stop-color="#C5D4FB"/>
<stop offset="1" stop-color="#C5D4FB" stop-opacity="0.13"/>
</linearGradient>
</defs>
</svg>
