<svg viewBox="0 0 1775 670" fill="none" stroke="#C2699F" xmlns="http://www.w3.org/2000/svg">
<g id="Layer 11" class="dark-logo">
<path id="Vector" d="M1003.9 119.643V119.143H1003.4H862.169H861.669V119.643V334.499C827.015 334.379 793.819 321.829 769.319 299.587C744.702 277.239 730.883 246.939 730.883 215.357V119.643C730.883 88.0605 744.702 57.7609 769.319 35.4127C793.936 13.0631 827.335 0.500002 862.169 0.500002H1003.44C1020.69 0.497217 1037.77 3.57941 1053.7 9.56959C1069.64 15.5598 1084.11 24.3399 1096.3 35.4065C1108.49 46.473 1118.15 59.6086 1124.75 74.0616C1131.34 88.5145 1134.73 104.003 1134.73 119.643V331.809C1134.73 516.691 970.991 669.053 767.259 669.499C563.52 669.945 397.684 519.704 397.684 335V119.643C397.684 88.0605 411.502 57.7609 436.119 35.4127C460.619 13.1701 493.816 0.62047 528.469 0.500865V335V335C528.518 363.462 534.755 391.633 546.821 417.899C558.887 444.164 576.544 468.005 598.777 488.056C621.009 508.108 647.38 523.975 676.376 534.751C705.373 545.527 736.425 550.999 767.755 550.856C898.816 550.068 1003.9 451.7 1003.9 332.617V119.643Z" fill="url(#paint0_radial_1084_90)"/>
<path id="Vector_2" d="M209.513 307.932L209.508 307.934L130.53 333.457L129.054 333.935L130.531 334.409L209.506 359.783L209.509 359.784L254.231 374.396L254.235 374.397C276.82 381.595 296.377 394.982 310.208 412.7C324.038 430.417 331.461 451.59 331.458 473.293V482.348L209.815 443.231L209.814 443.23L122.45 415.218L122.449 415.218L87.7755 404.073C62.2355 395.859 40.1347 380.664 24.5086 360.587C8.96042 340.61 0.581565 316.775 0.500592 292.332L122.449 253.116L122.45 253.116L209.814 225.21L209.815 225.21L331.458 186.071V269.397L254.238 294.043L254.234 294.044L209.513 307.932Z" fill="url(#paint1_radial_1084_90)"/>
<path id="Vector_3" d="M1322.27 273.423L1322.27 273.424L1297.81 352.737L1297.81 352.739L1259.06 476.442C1251.93 499.179 1236.84 519.196 1216.04 533.453C1195.43 547.587 1170.33 555.293 1144.5 555.427L1207.91 353.036L1207.91 353.034L1232.37 273.72L1232.37 273.719L1258 191.321L1258 191.321C1265.06 168.583 1280.12 148.554 1300.89 134.285C1321.47 120.14 1346.55 112.426 1372.37 112.295L1322.27 273.423Z"/>
<path id="Vector_4" d="M1644.36 334.647L1565.39 309.272L1565.39 309.272L1520.66 294.681L1520.66 294.68C1498.06 287.468 1478.5 274.062 1464.67 256.325C1450.84 238.589 1443.42 217.397 1443.44 195.678V195.678V186.708L1565.08 225.931L1565.08 225.932L1652.44 253.858L1652.45 253.859L1687.31 265.237C1712.8 273.578 1734.84 288.848 1750.42 308.959C1765.92 328.97 1774.29 352.808 1774.39 377.255L1652.45 416.408L1652.45 416.408L1565.08 444.314L1565.08 444.314L1443.44 483.453V400.233L1520.66 375.565L1520.66 375.564L1565.39 360.974L1565.39 360.973L1644.36 335.599L1645.85 335.123L1644.36 334.647Z" fill="url(#paint3_radial_1084_90)"/>
</g>
</svg>
