<svg viewBox="0 0 4197 789" fill="none" xmlns="http://www.w3.org/2000/svg">
<g id="Group 5246" opacity="0.3">
<g id="wave-t" opacity="0.3">
<mask id="path-1-inside-1_1105_23" fill="white">
<path fill-rule="evenodd" clip-rule="evenodd" d="M1151 331.942L1252.5 301.497C1354 271.051 1839.5 134.044 2042.5 118.821C2245.5 103.598 2657 262.186 2860 292.632C3182 340.925 3469 292.632 3639 188.632C3816.49 80.0471 3681.5 35.5776 3884.5 5.13167C4087.5 -25.3143 3993 88.3752 4094.5 118.821L4196 149.267V788.632H4094.5C3993 788.632 3790 788.632 3587 788.632C3384 788.632 3181 788.632 2978 788.632C2775 788.632 2572 788.632 2369 788.632C2166 788.632 1963 788.632 1760 788.632C1557 788.632 1354 788.632 1252.5 788.632H1151V331.942Z"/>
</mask>
<path fill-rule="evenodd" clip-rule="evenodd" d="M1151 331.942L1252.5 301.497C1354 271.051 1839.5 134.044 2042.5 118.821C2245.5 103.598 2657 262.186 2860 292.632C3182 340.925 3469 292.632 3639 188.632C3816.49 80.0471 3681.5 35.5776 3884.5 5.13167C4087.5 -25.3143 3993 88.3752 4094.5 118.821L4196 149.267V788.632H4094.5C3993 788.632 3790 788.632 3587 788.632C3384 788.632 3181 788.632 2978 788.632C2775 788.632 2572 788.632 2369 788.632C2166 788.632 1963 788.632 1760 788.632C1557 788.632 1354 788.632 1252.5 788.632H1151V331.942Z" fill="url(#paint0_radial_1105_23)" stroke="url(#paint1_radial_1105_23)" stroke-width="10" mask="url(#path-1-inside-1_1105_23)"/>
</g>
<g id="wave-b">
<mask id="path-2-inside-2_1105_23" fill="white">
<path fill-rule="evenodd" clip-rule="evenodd" d="M3045 498L2918 513C2791 528 2941.14 678.748 2740.5 512.999C2591 389.499 2340.5 520.499 2071.5 470.999C1822.24 425.132 1323.5 132 801 389.499C516.14 529.884 254 498 127 452L-1.60957e-05 406L-4.00496e-05 132L127 132C254 132 507 132 761 132C1015 132 1269 132 1522 132C1776 132 2030 132 2284 132C2537 132 2791 132 2918 132L3045 132L3045 498Z"/>
</mask>
<path fill-rule="evenodd" clip-rule="evenodd" d="M3045 498L2918 513C2791 528 2941.14 678.748 2740.5 512.999C2591 389.499 2340.5 520.499 2071.5 470.999C1822.24 425.132 1323.5 132 801 389.499C516.14 529.884 254 498 127 452L-1.60957e-05 406L-4.00496e-05 132L127 132C254 132 507 132 761 132C1015 132 1269 132 1522 132C1776 132 2030 132 2284 132C2537 132 2791 132 2918 132L3045 132L3045 498Z" fill="url(#paint2_radial_1105_23)" stroke="url(#paint3_radial_1105_23)" stroke-width="4" mask="url(#path-2-inside-2_1105_23)"/>
</g>
</g>
<defs>
<radialGradient id="paint0_radial_1105_23" cx="0" cy="0" r="1" gradientUnits="userSpaceOnUse" gradientTransform="translate(2649.4 322.512) rotate(87.0395) scale(466.743 1510.63)">
<stop stop-color="#C5D4FC"/>
<stop offset="0.739583" stop-color="#333C4D" stop-opacity="0"/>
</radialGradient>
<radialGradient id="paint1_radial_1105_23" cx="0" cy="0" r="1" gradientUnits="userSpaceOnUse" gradientTransform="translate(2649.4 322.512) rotate(87.0395) scale(466.743 1510.63)">
<stop stop-color="#C5D4FC"/>
<stop offset="0.739583" stop-color="#333C4D" stop-opacity="0"/>
</radialGradient>
<radialGradient id="paint2_radial_1105_23" cx="0" cy="0" r="1" gradientUnits="userSpaceOnUse" gradientTransform="translate(1523 555.999) rotate(-97.5189) scale(550.231 1261.8)">
<stop stop-color="#C5D4FC"/>
<stop offset="0.739583" stop-color="#333C4D" stop-opacity="0"/>
</radialGradient>
<radialGradient id="paint3_radial_1105_23" cx="0" cy="0" r="1" gradientUnits="userSpaceOnUse" gradientTransform="translate(1546.61 402.768) rotate(-95.0876) scale(271.839 1506.69)">
<stop stop-color="#C5D4FC"/>
<stop offset="0.739583" stop-color="#333C4D" stop-opacity="0"/>
</radialGradient>
</defs>
</svg>
