<svg viewBox="0 0 4197 789" fill="none" xmlns="http://www.w3.org/2000/svg">
<g id="wave">
<g id="wave-t" opacity="0.3">
<mask id="path-1-inside-1_1060_23" fill="white">
<path class="wave-t" fill-rule="evenodd" clip-rule="evenodd" d="M1151.62 332.063L1253.12 301.617C1354.62 271.171 1840.12 134.165 2043.12 118.942C2246.12 103.719 2657.62 262.306 2860.62 292.752C3182.62 341.046 3469.62 292.752 3639.62 188.752C3817.11 80.1677 3682.12 35.6982 3885.12 5.25227C4088.12 -25.1937 3993.62 88.4958 4095.12 118.942L4196.62 149.388V788.753H4095.12C3993.62 788.753 3790.62 788.753 3587.62 788.753C3384.62 788.753 3181.62 788.753 2978.62 788.753C2775.62 788.753 2572.62 788.753 2369.62 788.753C2166.62 788.753 1963.62 788.753 1760.62 788.753C1557.62 788.753 1354.62 788.753 1253.12 788.753H1151.62V332.063Z"/>
</mask>
<path class="wave-t-2" fill-rule="evenodd" clip-rule="evenodd" d="M1151.62 332.063L1253.12 301.617C1354.62 271.171 1840.12 134.165 2043.12 118.942C2246.12 103.719 2657.62 262.306 2860.62 292.752C3182.62 341.046 3469.62 292.752 3639.62 188.752C3817.11 80.1677 3682.12 35.6982 3885.12 5.25227C4088.12 -25.1937 3993.62 88.4958 4095.12 118.942L4196.62 149.388V788.753H4095.12C3993.62 788.753 3790.62 788.753 3587.62 788.753C3384.62 788.753 3181.62 788.753 2978.62 788.753C2775.62 788.753 2572.62 788.753 2369.62 788.753C2166.62 788.753 1963.62 788.753 1760.62 788.753C1557.62 788.753 1354.62 788.753 1253.12 788.753H1151.62V332.063Z" fill="url(#paint0_radial_1060_23)" stroke="url(#paint1_radial_1060_23)" stroke-width="10" mask="url(#path-1-inside-1_1060_23)"/>
</g>
<g id="wave-b">
<mask id="path-2-inside-2_1060_23" fill="white">
<path class="wave-b" fill-rule="evenodd" clip-rule="evenodd" d="M3045.62 498.12L2918.62 513.12C2791.62 528.12 2941.76 678.869 2741.12 513.12C2591.62 389.62 2341.12 520.62 2072.12 471.12C1822.86 425.252 1324.12 132.121 801.617 389.62C516.757 530.004 254.617 498.121 127.617 452.121L0.617171 406.121L0.617147 132.121L127.617 132.121C254.617 132.121 507.617 132.121 761.617 132.121C1015.62 132.121 1269.62 132.121 1522.62 132.121C1776.62 132.121 2030.62 132.121 2284.62 132.121C2537.62 132.121 2791.62 132.121 2918.62 132.12L3045.62 132.12L3045.62 498.12Z"/>
</mask>
<path class="wave-b-2" fill-rule="evenodd" clip-rule="evenodd" d="M3045.62 498.12L2918.62 513.12C2791.62 528.12 2941.76 678.869 2741.12 513.12C2591.62 389.62 2341.12 520.62 2072.12 471.12C1822.86 425.252 1324.12 132.121 801.617 389.62C516.757 530.004 254.617 498.121 127.617 452.121L0.617171 406.121L0.617147 132.121L127.617 132.121C254.617 132.121 507.617 132.121 761.617 132.121C1015.62 132.121 1269.62 132.121 1522.62 132.121C1776.62 132.121 2030.62 132.121 2284.62 132.121C2537.62 132.121 2791.62 132.121 2918.62 132.12L3045.62 132.12L3045.62 498.12Z" fill="url(#paint2_radial_1060_23)" stroke="url(#paint3_radial_1060_23)" stroke-width="4" mask="url(#path-2-inside-2_1060_23)"/>
</g>
</g>
<defs>
<radialGradient id="paint0_radial_1060_23" cx="0" cy="0" r="1" gradientUnits="userSpaceOnUse" gradientTransform="translate(2650.01 322.632) rotate(87.0395) scale(466.743 1510.63)">
<stop stop-color="#C5D4FC"/>
<stop offset="0.739583" stop-color="#333C4D" stop-opacity="0"/>
</radialGradient>
<radialGradient id="paint1_radial_1060_23" cx="0" cy="0" r="1" gradientUnits="userSpaceOnUse" gradientTransform="translate(2650.01 322.632) rotate(87.0395) scale(466.743 1510.63)">
<stop stop-color="#C5D4FC"/>
<stop offset="0.739583" stop-color="#333C4D" stop-opacity="0"/>
</radialGradient>
<radialGradient id="paint2_radial_1060_23" cx="0" cy="0" r="1" gradientUnits="userSpaceOnUse" gradientTransform="translate(1523.62 556.12) rotate(-97.5189) scale(550.231 1261.8)">
<stop stop-color="#C5D4FC"/>
<stop offset="0.739583" stop-color="#333C4D" stop-opacity="0"/>
</radialGradient>
<radialGradient id="paint3_radial_1060_23" cx="0" cy="0" r="1" gradientUnits="userSpaceOnUse" gradientTransform="translate(1547.22 402.888) rotate(-95.0876) scale(271.839 1506.69)">
<stop stop-color="#C5D4FC"/>
<stop offset="0.739583" stop-color="#333C4D" stop-opacity="0"/>
</radialGradient>
</defs>
</svg>
